<?xml version="1.0" encoding="utf-8"?>
<!-- Generator: Adobe Illustrator 22.0.1, SVG Export Plug-In . SVG Version: 6.00 Build 0)  -->
<svg version="1.1" id="Capa_1" xmlns="http://www.w3.org/2000/svg" xmlns:xlink="http://www.w3.org/1999/xlink" x="0px" y="0px"
	 viewBox="0 0 411 220.2" style="enable-background:new 0 0 411 220.2;" xml:space="preserve">
<style type="text/css">
	.st0{fill:#777776;}
	.st1{fill:#0056B4;}
	.st2{fill:#1D1D1B;}
</style>
<g id="logos-vertical-color">
	<g>
		<g>
			<path class="st0" d="M31.1,202.3c-0.7-0.2-1.3-0.5-1.7-0.8l0.8-1.7c0.4,0.3,0.9,0.6,1.5,0.7c0.6,0.2,1.1,0.3,1.7,0.3
				c0.6,0,1.1-0.1,1.4-0.3c0.3-0.2,0.5-0.4,0.5-0.8c0-0.2-0.1-0.4-0.3-0.6c-0.2-0.2-0.4-0.3-0.7-0.4c-0.3-0.1-0.7-0.2-1.1-0.3
				c-0.7-0.2-1.3-0.4-1.8-0.5c-0.5-0.2-0.9-0.5-1.2-0.8c-0.3-0.4-0.5-0.9-0.5-1.6c0-0.6,0.2-1.1,0.5-1.5c0.3-0.5,0.8-0.8,1.4-1.1
				c0.6-0.3,1.4-0.4,2.3-0.4c0.6,0,1.2,0.1,1.8,0.2c0.6,0.1,1.1,0.4,1.6,0.6l-0.7,1.7c-0.9-0.5-1.8-0.8-2.7-0.8
				c-0.6,0-1.1,0.1-1.4,0.3c-0.3,0.2-0.5,0.5-0.5,0.8c0,0.3,0.2,0.6,0.5,0.7c0.3,0.2,0.9,0.3,1.6,0.5c0.7,0.2,1.3,0.4,1.8,0.5
				c0.5,0.2,0.9,0.5,1.2,0.8c0.3,0.4,0.5,0.9,0.5,1.5c0,0.6-0.2,1.1-0.5,1.5c-0.3,0.5-0.8,0.8-1.4,1.1c-0.6,0.3-1.4,0.4-2.3,0.4
				C32.6,202.6,31.8,202.5,31.1,202.3z"/>
			<path class="st0" d="M47.4,200.6v1.8h-7.5v-9.7h7.3v1.8h-5.1v2.1h4.5v1.8h-4.5v2.3H47.4z"/>
			<path class="st0" d="M56.2,202.4l-1.9-2.7h-0.1h-2v2.7H50v-9.7h4.2c0.9,0,1.6,0.1,2.2,0.4c0.6,0.3,1.1,0.7,1.5,1.2
				c0.3,0.5,0.5,1.2,0.5,1.9c0,0.7-0.2,1.3-0.5,1.9c-0.3,0.5-0.8,0.9-1.5,1.2l2.2,3.1H56.2z M55.6,195c-0.4-0.3-0.9-0.4-1.5-0.4
				h-1.8v3.4h1.8c0.7,0,1.2-0.1,1.5-0.4c0.4-0.3,0.5-0.7,0.5-1.2C56.1,195.7,56,195.3,55.6,195z"/>
			<path class="st0" d="M70.4,192.7l-4.2,9.7H64l-4.2-9.7h2.4l3,6.9l3-6.9H70.4z"/>
			<path class="st0" d="M72,192.7h2.3v9.7H72V192.7z"/>
			<path class="st0" d="M79.4,202c-0.8-0.4-1.4-1-1.9-1.8c-0.5-0.8-0.7-1.6-0.7-2.6c0-1,0.2-1.8,0.7-2.6c0.5-0.8,1.1-1.4,1.9-1.8
				c0.8-0.4,1.7-0.6,2.7-0.6c0.8,0,1.6,0.1,2.3,0.4c0.7,0.3,1.3,0.7,1.7,1.3l-1.4,1.3c-0.7-0.8-1.5-1.1-2.4-1.1
				c-0.6,0-1.1,0.1-1.6,0.4c-0.5,0.3-0.8,0.6-1.1,1.1c-0.3,0.5-0.4,1-0.4,1.6c0,0.6,0.1,1.1,0.4,1.6c0.3,0.5,0.6,0.8,1.1,1.1
				c0.5,0.3,1,0.4,1.6,0.4c1,0,1.8-0.4,2.4-1.2l1.4,1.3c-0.5,0.6-1,1-1.7,1.3c-0.7,0.3-1.5,0.4-2.3,0.4
				C81.1,202.6,80.2,202.4,79.4,202z"/>
			<path class="st0" d="M88.4,192.7h2.3v9.7h-2.3V192.7z"/>
			<path class="st0" d="M95.8,201.9c-0.8-0.4-1.4-1-1.9-1.8c-0.5-0.8-0.7-1.6-0.7-2.6c0-1,0.2-1.8,0.7-2.6c0.5-0.8,1.1-1.4,1.9-1.8
				c0.8-0.4,1.7-0.7,2.7-0.7c1,0,1.9,0.2,2.7,0.7c0.8,0.4,1.4,1,1.9,1.8c0.5,0.8,0.7,1.6,0.7,2.6c0,1-0.2,1.8-0.7,2.6
				c-0.5,0.8-1.1,1.4-1.9,1.8c-0.8,0.4-1.7,0.7-2.7,0.7C97.5,202.6,96.6,202.4,95.8,201.9z M100.1,200.3c0.5-0.3,0.8-0.6,1.1-1.1
				c0.3-0.5,0.4-1,0.4-1.6c0-0.6-0.1-1.1-0.4-1.6c-0.3-0.5-0.6-0.8-1.1-1.1c-0.5-0.3-1-0.4-1.6-0.4c-0.6,0-1.1,0.1-1.6,0.4
				c-0.5,0.3-0.8,0.6-1.1,1.1c-0.3,0.5-0.4,1-0.4,1.6c0,0.6,0.1,1.1,0.4,1.6c0.3,0.5,0.6,0.8,1.1,1.1c0.5,0.3,1,0.4,1.6,0.4
				C99.1,200.7,99.6,200.6,100.1,200.3z"/>
			<path class="st0" d="M111.2,192.7h4.4c1.1,0,2,0.2,2.8,0.6c0.8,0.4,1.4,1,1.9,1.7c0.4,0.7,0.7,1.6,0.7,2.6c0,1-0.2,1.8-0.7,2.6
				c-0.5,0.7-1.1,1.3-1.9,1.7c-0.8,0.4-1.7,0.6-2.8,0.6h-4.4V192.7z M115.5,200.6c1,0,1.7-0.3,2.3-0.8c0.6-0.5,0.9-1.3,0.9-2.2
				c0-0.9-0.3-1.7-0.9-2.2c-0.6-0.5-1.4-0.8-2.3-0.8h-2.1v6H115.5z"/>
			<path class="st0" d="M131,200.6v1.8h-7.5v-9.7h7.3v1.8h-5.1v2.1h4.5v1.8h-4.5v2.3H131z"/>
			<path class="st0" d="M144.8,200.3h-4.5l-0.9,2.1h-2.3l4.3-9.7h2.2l4.3,9.7h-2.4L144.8,200.3z M144.1,198.6l-1.5-3.7l-1.5,3.7
				H144.1z"/>
			<path class="st0" d="M149.9,192.7h4.4c1.1,0,2,0.2,2.8,0.6c0.8,0.4,1.4,1,1.9,1.7c0.4,0.7,0.7,1.6,0.7,2.6c0,1-0.2,1.8-0.7,2.6
				c-0.5,0.7-1.1,1.3-1.9,1.7c-0.8,0.4-1.7,0.6-2.8,0.6h-4.4V192.7z M154.2,200.6c1,0,1.7-0.3,2.3-0.8c0.6-0.5,0.9-1.3,0.9-2.2
				c0-0.9-0.3-1.7-0.9-2.2c-0.6-0.5-1.4-0.8-2.3-0.8h-2.1v6H154.2z"/>
			<path class="st0" d="M171,202.4l0-5.8l-2.9,4.8h-1l-2.8-4.7v5.7h-2.1v-9.7h1.9l3.6,6l3.6-6h1.8l0,9.7H171z"/>
			<path class="st0" d="M176.3,192.7h2.3v9.7h-2.3V192.7z"/>
			<path class="st0" d="M190.6,192.7v9.7h-1.8l-4.8-5.9v5.9h-2.2v-9.7h1.9l4.8,5.9v-5.9H190.6z"/>
			<path class="st0" d="M193.7,192.7h2.3v9.7h-2.3V192.7z"/>
			<path class="st0" d="M200.1,202.3c-0.7-0.2-1.3-0.5-1.7-0.8l0.8-1.7c0.4,0.3,0.9,0.6,1.5,0.7c0.6,0.2,1.1,0.3,1.7,0.3
				c0.6,0,1.1-0.1,1.4-0.3c0.3-0.2,0.5-0.4,0.5-0.8c0-0.2-0.1-0.4-0.3-0.6c-0.2-0.2-0.4-0.3-0.7-0.4c-0.3-0.1-0.7-0.2-1.1-0.3
				c-0.7-0.2-1.3-0.4-1.8-0.5c-0.5-0.2-0.9-0.5-1.2-0.8c-0.3-0.4-0.5-0.9-0.5-1.6c0-0.6,0.2-1.1,0.5-1.5c0.3-0.5,0.8-0.8,1.4-1.1
				c0.6-0.3,1.4-0.4,2.3-0.4c0.6,0,1.2,0.1,1.8,0.2c0.6,0.1,1.1,0.4,1.6,0.6l-0.7,1.7c-0.9-0.5-1.8-0.8-2.7-0.8
				c-0.6,0-1.1,0.1-1.4,0.3c-0.3,0.2-0.5,0.5-0.5,0.8c0,0.3,0.2,0.6,0.5,0.7c0.3,0.2,0.9,0.3,1.6,0.5c0.7,0.2,1.3,0.4,1.8,0.5
				c0.5,0.2,0.9,0.5,1.2,0.8c0.3,0.4,0.5,0.9,0.5,1.5c0,0.6-0.2,1.1-0.5,1.5c-0.3,0.5-0.8,0.8-1.4,1.1c-0.6,0.3-1.4,0.4-2.3,0.4
				C201.5,202.6,200.8,202.5,200.1,202.3z"/>
			<path class="st0" d="M210.7,194.5h-3.1v-1.8h8.5v1.8h-3.1v7.9h-2.3V194.5z"/>
			<path class="st0" d="M224.3,202.4l-1.9-2.7h-0.1h-2v2.7h-2.3v-9.7h4.2c0.9,0,1.6,0.1,2.2,0.4c0.6,0.3,1.1,0.7,1.5,1.2
				c0.3,0.5,0.5,1.2,0.5,1.9c0,0.7-0.2,1.3-0.5,1.9c-0.3,0.5-0.8,0.9-1.5,1.2l2.2,3.1H224.3z M223.7,195c-0.4-0.3-0.9-0.4-1.5-0.4
				h-1.8v3.4h1.8c0.7,0,1.2-0.1,1.5-0.4c0.3-0.3,0.5-0.7,0.5-1.2C224.2,195.7,224.1,195.3,223.7,195z"/>
			<path class="st0" d="M235.5,200.3H231l-0.9,2.1h-2.3l4.3-9.7h2.2l4.3,9.7h-2.4L235.5,200.3z M234.8,198.6l-1.5-3.7l-1.5,3.7
				H234.8z"/>
			<path class="st0" d="M242.4,202c-0.8-0.4-1.4-1-1.9-1.8c-0.5-0.8-0.7-1.6-0.7-2.6c0-1,0.2-1.8,0.7-2.6c0.5-0.8,1.1-1.4,1.9-1.8
				c0.8-0.4,1.7-0.6,2.7-0.6c0.8,0,1.6,0.1,2.3,0.4c0.7,0.3,1.3,0.7,1.7,1.3l-1.4,1.3c-0.7-0.8-1.5-1.1-2.4-1.1
				c-0.6,0-1.1,0.1-1.6,0.4c-0.5,0.3-0.8,0.6-1.1,1.1c-0.3,0.5-0.4,1-0.4,1.6c0,0.6,0.1,1.1,0.4,1.6c0.3,0.5,0.6,0.8,1.1,1.1
				c0.5,0.3,1,0.4,1.6,0.4c1,0,1.8-0.4,2.4-1.2l1.4,1.3c-0.5,0.6-1,1-1.7,1.3c-0.7,0.3-1.5,0.4-2.3,0.4
				C244.1,202.6,243.2,202.4,242.4,202z"/>
			<path class="st0" d="M251.5,192.7h2.3v9.7h-2.3V192.7z"/>
			<path class="st0" d="M258.8,201.9c-0.8-0.4-1.4-1-1.9-1.8c-0.5-0.8-0.7-1.6-0.7-2.6c0-1,0.2-1.8,0.7-2.6c0.5-0.8,1.1-1.4,1.9-1.8
				c0.8-0.4,1.7-0.7,2.7-0.7s1.9,0.2,2.7,0.7c0.8,0.4,1.4,1,1.9,1.8c0.5,0.8,0.7,1.6,0.7,2.6c0,1-0.2,1.8-0.7,2.6
				c-0.5,0.8-1.1,1.4-1.9,1.8c-0.8,0.4-1.7,0.7-2.7,0.7S259.7,202.4,258.8,201.9z M263.1,200.3c0.5-0.3,0.8-0.6,1.1-1.1
				c0.3-0.5,0.4-1,0.4-1.6c0-0.6-0.1-1.1-0.4-1.6c-0.3-0.5-0.6-0.8-1.1-1.1c-0.5-0.3-1-0.4-1.6-0.4c-0.6,0-1.1,0.1-1.6,0.4
				c-0.5,0.3-0.8,0.6-1.1,1.1c-0.3,0.5-0.4,1-0.4,1.6c0,0.6,0.1,1.1,0.4,1.6c0.3,0.5,0.6,0.8,1.1,1.1c0.5,0.3,1,0.4,1.6,0.4
				C262.1,200.7,262.7,200.6,263.1,200.3z M262.2,189.9h2.3l-2.5,2h-1.7L262.2,189.9z"/>
			<path class="st0" d="M278.3,192.7v9.7h-1.8l-4.8-5.9v5.9h-2.2v-9.7h1.9l4.8,5.9v-5.9H278.3z"/>
			<path class="st0" d="M288.2,194.5h-3.1v-1.8h8.5v1.8h-3.1v7.9h-2.3V194.5z"/>
			<path class="st0" d="M301.8,202.4l-1.9-2.7h-0.1h-2v2.7h-2.3v-9.7h4.2c0.9,0,1.6,0.1,2.2,0.4c0.6,0.3,1.1,0.7,1.5,1.2
				c0.3,0.5,0.5,1.2,0.5,1.9c0,0.7-0.2,1.3-0.5,1.9c-0.3,0.5-0.8,0.9-1.5,1.2l2.2,3.1H301.8z M301.3,195c-0.4-0.3-0.9-0.4-1.5-0.4
				h-1.8v3.4h1.8c0.7,0,1.2-0.1,1.5-0.4c0.4-0.3,0.5-0.7,0.5-1.2C301.8,195.7,301.6,195.3,301.3,195z"/>
			<path class="st0" d="M306.7,192.7h2.3v9.7h-2.3V192.7z"/>
			<path class="st0" d="M320.5,198.3c0.3,0.4,0.5,0.9,0.5,1.5c0,0.9-0.3,1.5-1,2c-0.7,0.5-1.6,0.7-2.9,0.7h-5v-9.7h4.8
				c1.2,0,2.1,0.2,2.7,0.7c0.6,0.5,1,1.1,1,1.8c0,0.5-0.1,0.9-0.3,1.3c-0.2,0.4-0.5,0.7-1,0.9C319.8,197.6,320.2,197.8,320.5,198.3z
				 M314.3,194.4v2.3h2.2c0.6,0,1-0.1,1.3-0.3c0.3-0.2,0.4-0.5,0.4-0.9c0-0.4-0.1-0.7-0.4-0.9c-0.3-0.2-0.7-0.3-1.3-0.3H314.3z
				 M318.3,200.4c0.3-0.2,0.5-0.5,0.5-0.9c0-0.8-0.6-1.2-1.8-1.2h-2.6v2.4h2.6C317.5,200.7,318,200.6,318.3,200.4z"/>
			<path class="st0" d="M324.6,201.4c-0.8-0.8-1.2-1.9-1.2-3.3v-5.4h2.3v5.4c0,1.7,0.7,2.6,2.2,2.6c0.7,0,1.2-0.2,1.6-0.6
				c0.4-0.4,0.6-1.1,0.6-2v-5.4h2.2v5.4c0,1.4-0.4,2.5-1.2,3.3c-0.8,0.8-1.9,1.2-3.2,1.2C326.5,202.6,325.4,202.2,324.6,201.4z"/>
			<path class="st0" d="M337.2,194.5H334v-1.8h8.5v1.8h-3.1v7.9h-2.3V194.5z"/>
			<path class="st0" d="M350.5,200.3H346l-0.9,2.1h-2.3l4.3-9.7h2.2l4.3,9.7h-2.4L350.5,200.3z M349.8,198.6l-1.5-3.7l-1.5,3.7
				H349.8z"/>
			<path class="st0" d="M361.7,202.4l-1.9-2.7h-0.1h-2v2.7h-2.3v-9.7h4.2c0.9,0,1.6,0.1,2.2,0.4c0.6,0.3,1.1,0.7,1.5,1.2
				c0.3,0.5,0.5,1.2,0.5,1.9c0,0.7-0.2,1.3-0.5,1.9c-0.3,0.5-0.8,0.9-1.5,1.2l2.2,3.1H361.7z M361.2,195c-0.3-0.3-0.9-0.4-1.5-0.4
				h-1.8v3.4h1.8c0.7,0,1.2-0.1,1.5-0.4c0.4-0.3,0.5-0.7,0.5-1.2C361.7,195.7,361.5,195.3,361.2,195z"/>
			<path class="st0" d="M366.6,192.7h2.3v9.7h-2.3V192.7z"/>
			<path class="st0" d="M378.4,200.3h-4.5l-0.9,2.1h-2.3l4.3-9.7h2.2l4.3,9.7h-2.4L378.4,200.3z M377.7,198.6l-1.5-3.7l-1.5,3.7
				H377.7z"/>
		</g>
		<g>
			<g>
				<path class="st1" d="M255.4,41.4c0,13.1-10.7,23.8-23.8,23.8c-13.1,0-23.8-10.7-23.8-23.8c0-13.1,10.7-23.8,23.8-23.8
					C244.7,17.6,255.4,28.2,255.4,41.4"/>
				<path class="st1" d="M203.1,41.4c0,13.1-10.7,23.8-23.8,23.8c-13.1,0-23.8-10.7-23.8-23.8c0-13.1,10.7-23.8,23.8-23.8
					C192.5,17.6,203.1,28.2,203.1,41.4"/>
				<path class="st1" d="M203.1,93.7c0,13.1-10.7,23.8-23.8,23.8c-13.1,0-23.8-10.7-23.8-23.8c0-13.1,10.7-23.8,23.8-23.8
					C192.5,69.9,203.1,80.5,203.1,93.7"/>
				<path class="st1" d="M255.4,93.6c0,13.1-10.7,23.8-23.8,23.8c-13.1,0-23.8-10.7-23.8-23.8c0-13.1,10.7-23.8,23.8-23.8
					C244.7,69.8,255.4,80.5,255.4,93.6"/>
			</g>
			<g>
				<polygon class="st2" points="296.9,131.9 237.5,131.9 237.5,147.9 257.5,147.9 257.5,178.2 277.1,178.2 277.1,147.9 
					296.9,147.9 				"/>
				<path class="st2" d="M223.5,131.9h-28.6l-22.8,46.2c0,0,24,0.1,24.3,0l7-17.2c0,0,13.1,3.6,18,17.2h24.3L223.5,131.9z
					 M204,158.8l5.8-14.5l4.4,14.5H204z"/>
				<path class="st2" d="M167.2,133v14.4c-0.3-0.4-1.2-0.7-2.1-1c-9.2-3.3-20.8-3.8-23.6-2.9c-2.5,0.8-3,2.4-1.2,3.5
					c1.2,0.7,7.4,1.7,14.1,3.3c15.9,3.7,21.9,9.9,16,19c-4.9,7.8-24.1,12.4-50.5,7.7c-1.6-0.3-2-1-5.3-1.3v-15
					c2.6,0.5,3.7,1,4.7,1.4c6.6,2.7,18.8,4.5,23.8,4c3.7-0.3,5.3-2,3.4-3.5c-1-0.8-8.4-1.6-14.7-3c-16.4-3.6-20.9-9.6-16.2-18.2
					c3.8-7,16.4-11.5,37.2-10.2c3.7,0.2,7.3,0.7,11,1.2C165.2,132.4,166.5,132.7,167.2,133"/>
			</g>
		</g>
	</g>
</g>
</svg>
