<?xml version="1.0" encoding="utf-8"?>
<!-- Generator: Adobe Illustrator 22.0.1, SVG Export Plug-In . SVG Version: 6.00 Build 0)  -->
<svg version="1.1" id="Capa_1" xmlns="http://www.w3.org/2000/svg" xmlns:xlink="http://www.w3.org/1999/xlink" x="0px" y="0px"
	 viewBox="0 0 432.6 107.5" style="enable-background:new 0 0 432.6 107.5;" xml:space="preserve">
<style type="text/css">
	.st0{fill:#302E2B;}
	.st1{fill:#0056B4;}
	.st2{fill:#787674;}
</style>
<g id="logos-vertical-color">
	<g>
		<g>
			<polygon class="st0" points="267,35.1 216.4,35.1 216.4,48.7 233.5,48.7 233.5,74.5 250.1,74.5 250.1,48.7 267,48.7 			"/>
			<path class="st0" d="M223.3,74.5l-18.8-39.2h-24.3l-19.4,39.2c0,0,20.4,0.1,20.6,0l5.9-14.6c0,0,11.1,3.1,15.3,14.6H223.3z
				 M188,58.1l5-12.4l3.8,12.4H188z"/>
			<path class="st0" d="M156.7,36v12.2c-0.3-0.3-1-0.6-1.8-0.9c-7.8-2.8-17.7-3.2-20.1-2.4c-2.1,0.7-2.6,2.1-1,3
				c1,0.6,6.3,1.4,12,2.8c13.5,3.1,18.6,8.4,13.6,16.2c-4.1,6.7-20.5,10.5-43,6.5c-1.3-0.2-1.7-0.8-4.5-1.1V59.5
				c2.2,0.4,3.1,0.8,4,1.2c5.6,2.3,16,3.8,20.2,3.4c3.1-0.3,4.5-1.7,2.9-3c-0.9-0.7-7.1-1.4-12.5-2.5c-13.9-3.1-17.8-8.2-13.8-15.5
				c3.2-5.9,14-9.8,31.6-8.7c3.1,0.2,6.2,0.6,9.4,1.1C155,35.6,156.1,35.8,156.7,36"/>
		</g>
		<g>
			<g>
				<path class="st1" d="M96,31.4c0,11.2-9.1,20.2-20.2,20.2c-11.2,0-20.3-9.1-20.3-20.2c0-11.2,9.1-20.2,20.3-20.2
					C86.9,11.1,96,20.2,96,31.4"/>
				<path class="st1" d="M51.6,31.4c0,11.2-9.1,20.2-20.2,20.2c-11.2,0-20.2-9.1-20.2-20.2c0-11.2,9.1-20.2,20.2-20.2
					C42.5,11.1,51.6,20.2,51.6,31.4"/>
				<path class="st1" d="M51.6,75.8c0,11.2-9.1,20.3-20.2,20.3c-11.2,0-20.2-9.1-20.2-20.3c0-11.2,9.1-20.2,20.2-20.2
					C42.5,55.6,51.6,64.7,51.6,75.8"/>
				<path class="st1" d="M96,76c0,11.2-9.1,20.2-20.2,20.2c-11.2,0-20.3-9.1-20.3-20.2c0-11.2,9.1-20.2,20.3-20.2
					C86.9,55.7,96,64.8,96,76"/>
			</g>
			<g>
				<path class="st2" d="M112,96.1c-0.6-0.2-1.1-0.4-1.5-0.7l0.7-1.5c0.4,0.3,0.8,0.5,1.3,0.6c0.5,0.2,1,0.2,1.5,0.2
					c0.6,0,1-0.1,1.2-0.2c0.3-0.2,0.4-0.4,0.4-0.7c0-0.2-0.1-0.4-0.2-0.5c-0.1-0.1-0.4-0.2-0.6-0.3c-0.3-0.1-0.6-0.2-1-0.3
					c-0.7-0.2-1.2-0.3-1.6-0.5c-0.4-0.2-0.8-0.4-1.1-0.7c-0.3-0.4-0.5-0.8-0.5-1.4c0-0.5,0.1-0.9,0.4-1.4c0.3-0.4,0.7-0.7,1.2-1
					c0.5-0.2,1.2-0.4,2-0.4c0.5,0,1.1,0.1,1.6,0.2c0.5,0.1,1,0.3,1.4,0.6l-0.6,1.5c-0.8-0.5-1.6-0.7-2.4-0.7c-0.5,0-1,0.1-1.2,0.3
					c-0.3,0.2-0.4,0.4-0.4,0.7c0,0.3,0.2,0.5,0.5,0.7c0.3,0.1,0.8,0.3,1.4,0.4c0.6,0.1,1.2,0.3,1.6,0.5c0.4,0.2,0.8,0.4,1.1,0.7
					c0.3,0.3,0.4,0.8,0.4,1.4c0,0.5-0.1,0.9-0.4,1.3c-0.3,0.4-0.7,0.7-1.2,1c-0.5,0.2-1.2,0.3-2,0.3C113.3,96.3,112.7,96.2,112,96.1
					z"/>
				<path class="st2" d="M126.4,94.6v1.6h-6.7v-8.6h6.5v1.6h-4.5v1.9h4v1.5h-4v2H126.4z"/>
				<path class="st2" d="M134.2,96.2l-1.7-2.4h-0.1h-1.7v2.4h-2v-8.6h3.7c0.8,0,1.4,0.1,2,0.4c0.6,0.3,1,0.6,1.3,1.1
					c0.3,0.5,0.5,1,0.5,1.7c0,0.6-0.1,1.2-0.5,1.7c-0.3,0.5-0.7,0.8-1.3,1.1l1.9,2.8H134.2z M133.7,89.6c-0.3-0.3-0.8-0.4-1.4-0.4
					h-1.6v3h1.6c0.6,0,1.1-0.1,1.4-0.4c0.3-0.3,0.5-0.6,0.5-1.1C134.2,90.2,134,89.9,133.7,89.6z"/>
				<path class="st2" d="M146.7,87.6l-3.7,8.6h-2l-3.7-8.6h2.1l2.6,6.1l2.6-6.1H146.7z"/>
				<path class="st2" d="M148.2,87.6h2v8.6h-2V87.6z"/>
				<path class="st2" d="M154.7,95.8c-0.7-0.4-1.3-0.9-1.7-1.6c-0.4-0.7-0.6-1.4-0.6-2.3c0-0.8,0.2-1.6,0.6-2.3
					c0.4-0.7,1-1.2,1.7-1.6c0.7-0.4,1.5-0.6,2.4-0.6c0.8,0,1.4,0.1,2,0.4c0.6,0.3,1.1,0.6,1.5,1.1l-1.3,1.2c-0.6-0.7-1.3-1-2.2-1
					c-0.5,0-1,0.1-1.4,0.3c-0.4,0.2-0.7,0.6-1,1c-0.2,0.4-0.4,0.9-0.4,1.4c0,0.5,0.1,1,0.4,1.4c0.2,0.4,0.6,0.7,1,1
					c0.4,0.2,0.9,0.4,1.4,0.4c0.9,0,1.6-0.3,2.2-1l1.3,1.2c-0.4,0.5-0.9,0.9-1.5,1.1c-0.6,0.3-1.3,0.4-2,0.4
					C156.2,96.3,155.4,96.1,154.7,95.8z"/>
				<path class="st2" d="M162.7,87.6h2v8.6h-2V87.6z"/>
				<path class="st2" d="M169.2,95.8c-0.7-0.4-1.3-0.9-1.7-1.6c-0.4-0.7-0.6-1.4-0.6-2.3c0-0.8,0.2-1.6,0.6-2.3
					c0.4-0.7,1-1.2,1.7-1.6c0.7-0.4,1.5-0.6,2.4-0.6c0.9,0,1.7,0.2,2.4,0.6c0.7,0.4,1.3,0.9,1.7,1.6c0.4,0.7,0.6,1.4,0.6,2.3
					c0,0.8-0.2,1.6-0.6,2.3c-0.4,0.7-1,1.2-1.7,1.6c-0.7,0.4-1.5,0.6-2.4,0.6C170.7,96.3,169.9,96.1,169.2,95.8z M173,94.3
					c0.4-0.2,0.7-0.6,1-1c0.2-0.4,0.3-0.9,0.3-1.4c0-0.5-0.1-1-0.3-1.4c-0.2-0.4-0.6-0.7-1-1c-0.4-0.2-0.9-0.3-1.4-0.3
					c-0.5,0-1,0.1-1.4,0.3c-0.4,0.2-0.7,0.6-1,1c-0.2,0.4-0.4,0.9-0.4,1.4c0,0.5,0.1,1,0.4,1.4c0.2,0.4,0.6,0.7,1,1
					c0.4,0.2,0.9,0.4,1.4,0.4C172.1,94.6,172.6,94.5,173,94.3z"/>
				<path class="st2" d="M182.7,87.6h3.9c0.9,0,1.8,0.2,2.5,0.5c0.7,0.4,1.3,0.9,1.7,1.5c0.4,0.6,0.6,1.4,0.6,2.3
					c0,0.9-0.2,1.6-0.6,2.3c-0.4,0.6-1,1.1-1.7,1.5c-0.7,0.3-1.5,0.5-2.5,0.5h-3.9V87.6z M186.5,94.6c0.9,0,1.6-0.2,2.1-0.7
					c0.5-0.5,0.8-1.1,0.8-2c0-0.8-0.3-1.5-0.8-1.9c-0.5-0.5-1.2-0.7-2.1-0.7h-1.8v5.3H186.5z"/>
				<path class="st2" d="M200.2,94.6v1.6h-6.7v-8.6h6.5v1.6h-4.5v1.9h4v1.5h-4v2H200.2z"/>
				<path class="st2" d="M212.4,94.3h-4l-0.8,1.8h-2l3.8-8.6h2l3.8,8.6h-2.1L212.4,94.3z M211.8,92.8l-1.4-3.3l-1.4,3.3H211.8z"/>
				<path class="st2" d="M216.9,87.6h3.9c0.9,0,1.7,0.2,2.5,0.5c0.7,0.4,1.3,0.9,1.7,1.5c0.4,0.6,0.6,1.4,0.6,2.3
					c0,0.9-0.2,1.6-0.6,2.3c-0.4,0.6-1,1.1-1.7,1.5c-0.7,0.3-1.5,0.5-2.5,0.5h-3.9V87.6z M220.7,94.6c0.9,0,1.5-0.2,2-0.7
					c0.5-0.5,0.8-1.1,0.8-2c0-0.8-0.3-1.5-0.8-1.9c-0.5-0.5-1.2-0.7-2-0.7h-1.8v5.3H220.7z"/>
				<path class="st2" d="M235.6,96.2l0-5.2l-2.5,4.2h-0.9l-2.5-4.1v5.1h-1.9v-8.6h1.6l3.2,5.3l3.2-5.3h1.6l0,8.6H235.6z"/>
				<path class="st2" d="M240.2,87.6h2v8.6h-2V87.6z"/>
				<path class="st2" d="M252.9,87.6v8.6h-1.6l-4.3-5.2v5.2h-2v-8.6h1.7l4.3,5.2v-5.2H252.9z"/>
				<path class="st2" d="M255.6,87.6h2v8.6h-2V87.6z"/>
				<path class="st2" d="M261.2,96.1c-0.6-0.2-1.2-0.4-1.5-0.7l0.7-1.5c0.4,0.3,0.8,0.5,1.3,0.6c0.5,0.2,1,0.2,1.5,0.2
					c0.6,0,1-0.1,1.3-0.2c0.3-0.2,0.4-0.4,0.4-0.7c0-0.2-0.1-0.4-0.2-0.5c-0.2-0.1-0.4-0.2-0.6-0.3c-0.3-0.1-0.6-0.2-1-0.3
					c-0.7-0.2-1.2-0.3-1.6-0.5c-0.4-0.2-0.8-0.4-1.1-0.7c-0.3-0.4-0.4-0.8-0.4-1.4c0-0.5,0.1-0.9,0.4-1.4c0.3-0.4,0.7-0.7,1.2-1
					c0.6-0.2,1.2-0.4,2-0.4c0.5,0,1.1,0.1,1.6,0.2c0.5,0.1,1,0.3,1.4,0.6l-0.6,1.5c-0.8-0.5-1.6-0.7-2.4-0.7c-0.6,0-1,0.1-1.2,0.3
					c-0.3,0.2-0.4,0.4-0.4,0.7c0,0.3,0.2,0.5,0.5,0.7c0.3,0.1,0.8,0.3,1.4,0.4c0.7,0.1,1.2,0.3,1.6,0.5c0.4,0.2,0.8,0.4,1.1,0.7
					c0.3,0.3,0.5,0.8,0.5,1.4c0,0.5-0.1,0.9-0.4,1.3c-0.3,0.4-0.7,0.7-1.2,1c-0.5,0.2-1.2,0.3-2,0.3
					C262.5,96.3,261.8,96.2,261.2,96.1z"/>
				<path class="st2" d="M270.6,89.2h-2.8v-1.6h7.5v1.6h-2.7v7h-2V89.2z"/>
				<path class="st2" d="M282.6,96.2l-1.7-2.4h-0.1h-1.7v2.4h-2v-8.6h3.7c0.8,0,1.4,0.1,2,0.4c0.6,0.3,1,0.6,1.3,1.1
					c0.3,0.5,0.5,1,0.5,1.7c0,0.6-0.2,1.2-0.5,1.7c-0.3,0.5-0.7,0.8-1.3,1.1l1.9,2.8H282.6z M282.1,89.6c-0.3-0.3-0.8-0.4-1.4-0.4
					h-1.6v3h1.6c0.6,0,1-0.1,1.4-0.4c0.3-0.3,0.5-0.6,0.5-1.1C282.5,90.2,282.4,89.9,282.1,89.6z"/>
				<path class="st2" d="M292.5,94.3h-4l-0.8,1.8h-2l3.8-8.6h2l3.8,8.6h-2.1L292.5,94.3z M291.9,92.8l-1.4-3.3l-1.4,3.3H291.9z"/>
				<path class="st2" d="M298.6,95.8c-0.7-0.4-1.3-0.9-1.7-1.6c-0.4-0.7-0.6-1.4-0.6-2.3c0-0.8,0.2-1.6,0.6-2.3
					c0.4-0.7,1-1.2,1.7-1.6c0.7-0.4,1.5-0.6,2.4-0.6c0.7,0,1.4,0.1,2,0.4c0.6,0.3,1.1,0.6,1.5,1.1l-1.3,1.2c-0.6-0.7-1.3-1-2.2-1
					c-0.5,0-1,0.1-1.4,0.3c-0.4,0.2-0.7,0.6-1,1c-0.2,0.4-0.3,0.9-0.3,1.4c0,0.5,0.1,1,0.3,1.4c0.2,0.4,0.6,0.7,1,1
					c0.4,0.2,0.9,0.4,1.4,0.4c0.9,0,1.6-0.3,2.2-1l1.3,1.2c-0.4,0.5-0.9,0.9-1.5,1.1c-0.6,0.3-1.3,0.4-2,0.4
					C300.1,96.3,299.3,96.1,298.6,95.8z"/>
				<path class="st2" d="M306.6,87.6h2v8.6h-2V87.6z"/>
				<path class="st2" d="M313.1,95.8c-0.7-0.4-1.3-0.9-1.7-1.6c-0.4-0.7-0.6-1.4-0.6-2.3c0-0.8,0.2-1.6,0.6-2.3
					c0.4-0.7,1-1.2,1.7-1.6c0.7-0.4,1.5-0.6,2.4-0.6c0.9,0,1.7,0.2,2.4,0.6c0.7,0.4,1.3,0.9,1.7,1.6c0.4,0.7,0.6,1.4,0.6,2.3
					c0,0.8-0.2,1.6-0.6,2.3c-0.4,0.7-1,1.2-1.7,1.6c-0.7,0.4-1.5,0.6-2.4,0.6C314.6,96.3,313.8,96.1,313.1,95.8z M316.9,94.3
					c0.4-0.2,0.7-0.6,1-1c0.2-0.4,0.3-0.9,0.3-1.4c0-0.5-0.1-1-0.3-1.4c-0.2-0.4-0.6-0.7-1-1c-0.4-0.2-0.9-0.3-1.4-0.3
					c-0.5,0-1,0.1-1.4,0.3c-0.4,0.2-0.7,0.6-1,1c-0.2,0.4-0.3,0.9-0.3,1.4c0,0.5,0.1,1,0.3,1.4c0.2,0.4,0.6,0.7,1,1
					c0.4,0.2,0.9,0.4,1.4,0.4C316,94.6,316.5,94.5,316.9,94.3z M316,85.1h2.1l-2.2,1.8h-1.5L316,85.1z"/>
				<path class="st2" d="M330.3,87.6v8.6h-1.6l-4.3-5.2v5.2h-2v-8.6h1.6l4.3,5.2v-5.2H330.3z"/>
				<path class="st2" d="M339.1,89.2h-2.8v-1.6h7.5v1.6H341v7h-2V89.2z"/>
				<path class="st2" d="M351.1,96.2l-1.7-2.4h-0.1h-1.7v2.4h-2v-8.6h3.7c0.8,0,1.4,0.1,2,0.4c0.6,0.3,1,0.6,1.3,1.1
					c0.3,0.5,0.5,1,0.5,1.7c0,0.6-0.2,1.2-0.5,1.7c-0.3,0.5-0.7,0.8-1.3,1.1l1.9,2.8H351.1z M350.6,89.6c-0.3-0.3-0.8-0.4-1.4-0.4
					h-1.6v3h1.6c0.6,0,1-0.1,1.4-0.4c0.3-0.3,0.5-0.6,0.5-1.1C351,90.2,350.9,89.9,350.6,89.6z"/>
				<path class="st2" d="M355.3,87.6h2v8.6h-2V87.6z"/>
				<path class="st2" d="M367.5,92.5c0.3,0.4,0.4,0.8,0.4,1.3c0,0.8-0.3,1.3-0.9,1.7c-0.6,0.4-1.4,0.6-2.6,0.6h-4.4v-8.6h4.2
					c1.1,0,1.8,0.2,2.4,0.6c0.6,0.4,0.8,0.9,0.8,1.6c0,0.4-0.1,0.8-0.3,1.1c-0.2,0.3-0.5,0.6-0.8,0.8
					C366.9,91.9,367.3,92.1,367.5,92.5z M362.1,89.1v2h2c0.5,0,0.9-0.1,1.1-0.3c0.3-0.2,0.4-0.4,0.4-0.8c0-0.3-0.1-0.6-0.4-0.8
					c-0.3-0.2-0.6-0.3-1.1-0.3H362.1z M365.6,94.4c0.3-0.2,0.4-0.4,0.4-0.8c0-0.7-0.5-1.1-1.6-1.1h-2.3v2.1h2.3
					C364.9,94.7,365.3,94.6,365.6,94.4z"/>
				<path class="st2" d="M371.2,95.3c-0.7-0.7-1-1.6-1-2.9v-4.8h2v4.7c0,1.5,0.6,2.3,1.9,2.3c0.6,0,1.1-0.2,1.4-0.6
					c0.3-0.4,0.5-1,0.5-1.7v-4.7h2v4.8c0,1.3-0.3,2.2-1,2.9c-0.7,0.7-1.6,1-2.9,1C372.8,96.3,371.8,96,371.2,95.3z"/>
				<path class="st2" d="M382.2,89.2h-2.7v-1.6h7.5v1.6h-2.7v7h-2V89.2z"/>
				<path class="st2" d="M394,94.3h-4l-0.8,1.8h-2l3.8-8.6h2l3.8,8.6h-2.1L394,94.3z M393.4,92.8l-1.4-3.3l-1.4,3.3H393.4z"/>
				<path class="st2" d="M403.9,96.2l-1.7-2.4h-0.1h-1.7v2.4h-2v-8.6h3.7c0.8,0,1.4,0.1,2,0.4c0.6,0.3,1,0.6,1.3,1.1
					c0.3,0.5,0.5,1,0.5,1.7c0,0.6-0.2,1.2-0.5,1.7c-0.3,0.5-0.7,0.8-1.3,1.1l1.9,2.8H403.9z M403.5,89.6c-0.3-0.3-0.8-0.4-1.4-0.4
					h-1.6v3h1.6c0.6,0,1.1-0.1,1.4-0.4c0.3-0.3,0.5-0.6,0.5-1.1C403.9,90.2,403.8,89.9,403.5,89.6z"/>
				<path class="st2" d="M408.2,87.6h2v8.6h-2V87.6z"/>
				<path class="st2" d="M418.6,94.3h-4l-0.8,1.8h-2l3.8-8.6h2l3.8,8.6h-2.1L418.6,94.3z M418,92.8l-1.4-3.3l-1.4,3.3H418z"/>
			</g>
		</g>
	</g>
</g>
</svg>
